<?xml version="1.0" encoding="utf-8"?>
<!-- Generator: Adobe Illustrator 22.0.1, SVG Export Plug-In . SVG Version: 6.00 Build 0)  -->
<svg version="1.1" id="Layer_1" xmlns="http://www.w3.org/2000/svg" xmlns:xlink="http://www.w3.org/1999/xlink" x="0px" y="0px"
	 viewBox="0 0 1024 1024" style="enable-background:new 0 0 1024 1024;" xml:space="preserve">
<style type="text/css">
	.st0{stroke:#000000;stroke-miterlimit:10;}
	.st1{fill:#FFFFFF;stroke:#000000;stroke-miterlimit:10;}
</style>
<path class="st0" d="M301.4,269.7c0,131.7,98,238.3,219.1,238.3c119.5,0,216.2-98.3,216.2-219.8c0-119.6-96.7-216.4-216.2-216.4
	C399.3,71.9,301.4,160.4,301.4,269.7z"/>
<path class="st1" d="M318,280.3c0,99.6,85.6,180.2,191.4,180.2c100.2,0,181.3-82.7,181.3-185c0-107.3-78.6-194.2-175.8-194.2
	C406,81.4,318,170.4,318,280.3z"/>
<polygon class="st0" points="514.2,942.1 531.9,527.9 498.7,527.9 "/>
<path class="st0" d="M220.4,410.5c0,185.7,131.9,336,294.9,336l-4.2,63.4C350.4,809.9,220.4,631.3,220.4,410.5"/>
<path class="st0" d="M806.9,410.5c0,185.7-131.9,336-294.9,336l4.2,63.4C676.9,809.9,806.9,631.3,806.9,410.5"/>
</svg>
