<?xml version="1.0" encoding="utf-8"?>
<!-- Generator: Adobe Illustrator 22.0.1, SVG Export Plug-In . SVG Version: 6.00 Build 0)  -->
<svg version="1.1" id="Layer_1" xmlns="http://www.w3.org/2000/svg" xmlns:xlink="http://www.w3.org/1999/xlink" x="0px" y="0px"
	 viewBox="0 0 1024 1024" style="enable-background:new 0 0 1024 1024;" xml:space="preserve">
<style type="text/css">
	.st0{stroke:#000000;stroke-miterlimit:10;}
	.st1{fill:#FFFFFF;stroke:#000000;stroke-miterlimit:10;}
</style>
<path class="st0" d="M232.7,603.2c0,169.1,125.8,305.9,281.2,305.9c153.4,0,277.5-126.2,277.5-282.1
	c0-153.5-124.1-277.8-277.5-277.8C358.4,349.2,232.7,462.8,232.7,603.2z"/>
<path class="st1" d="M252.1,646.5c0,137.8,118.4,249.2,264.8,249.2c138.6,0,250.7-114.4,250.7-255.8
	c0-148.4-108.7-268.5-243.1-268.5C373.9,371.4,252.1,494.4,252.1,646.5z"/>
<polyline class="st0" points="532.2,49.2 497.5,371.7 497.5,49.2 532.2,49.2 458.3,49.2 497.5,371.7 "/>
<polyline class="st0" points="686.1,49.2 657.9,49.2 520,179 "/>
<polygon class="st0" points="693.4,311.9 672,311.9 518.4,180 "/>
</svg>
