<?xml version="1.0" encoding="utf-8"?>
<!-- Generator: Adobe Illustrator 22.0.1, SVG Export Plug-In . SVG Version: 6.00 Build 0)  -->
<svg version="1.1" id="Layer_1" xmlns="http://www.w3.org/2000/svg" xmlns:xlink="http://www.w3.org/1999/xlink" x="0px" y="0px"
	 viewBox="0 0 1024 1024" style="enable-background:new 0 0 1024 1024;" xml:space="preserve">
<style type="text/css">
	.st0{stroke:#000000;stroke-miterlimit:10;}
	.st1{fill:#FFFFFF;stroke:#000000;stroke-miterlimit:10;}
</style>
<path class="st0" d="M68.1,537.5c0,223.7,166.4,404.7,371.9,404.7c202.9,0,367.1-166.9,367.1-373.2c0-203.1-164.2-367.4-367.1-367.4
	C234.4,201.6,68.1,351.8,68.1,537.5z"/>
<path class="st1" d="M114.9,569c0,169.1,145.4,306,325.1,306c170.1,0,307.8-140.5,307.8-314.1c0-182.2-133.5-329.7-298.4-329.7
	C264.5,231.2,114.9,382.3,114.9,569z"/>
<polyline class="st0" points="688.8,298.7 879.1,146.1 718.2,329.1 "/>
<polygon class="st0" points="677.6,146.1 879.1,146.1 677.6,166.4 "/>
<polyline class="st0" points="879.1,146.1 879.1,305.5 879.1,329.1 852.6,329.1 "/>
</svg>
