<?xml version="1.0" encoding="utf-8"?>
<!-- Generator: Adobe Illustrator 22.0.1, SVG Export Plug-In . SVG Version: 6.00 Build 0)  -->
<svg version="1.1" id="Layer_1" xmlns="http://www.w3.org/2000/svg" xmlns:xlink="http://www.w3.org/1999/xlink" x="0px" y="0px"
	 viewBox="0 0 1024 1024" style="enable-background:new 0 0 1024 1024;" xml:space="preserve">
<style type="text/css">
	.st0{stroke:#000000;stroke-miterlimit:10;}
	.st1{fill:#FFFFFF;stroke:#000000;stroke-miterlimit:10;}
</style>
<path class="st0" d="M297.9,497c0,102.3,89.1,185,199.2,185c112.7,0,204-82.8,204-185c0-113.6-91.2-205.6-204-205.6
	C387,291.4,297.9,383.4,297.9,497z"/>
<path class="st1" d="M330.7,474.2c0,89,74.4,160.9,166.3,160.9c87.7,0,158.7-72,158.7-160.9c0-92.4-71-167.2-158.7-167.2
	C405.1,307.1,330.7,381.8,330.7,474.2z"/>
<path class="st0" d="M341.6,136.8c0,85.5,69.5,154.7,155.4,154.7c87.7,0,158.7-69.2,158.7-154.7c0,70.8-69.9,128.1-156.2,128.1
	C412.2,264.9,341.6,207.6,341.6,136.8z"/>
<polyline class="st0" points="493.2,653.9 476,653.9 512,653.9 493.2,916.4 476,653.9 "/>
<path class="st0" d="M413.5,753.9"/>
<path class="st0" d="M415.1,753.9h157.8c0,6.9-34.6,12.5-77.3,12.5C451.1,766.4,415.1,760.8,415.1,753.9z"/>
</svg>
