<?xml version="1.0" encoding="utf-8"?>
<!-- Generator: Adobe Illustrator 22.0.1, SVG Export Plug-In . SVG Version: 6.00 Build 0)  -->
<svg version="1.1" id="Layer_1" xmlns="http://www.w3.org/2000/svg" xmlns:xlink="http://www.w3.org/1999/xlink" x="0px" y="0px"
	 viewBox="0 0 1024 1024" style="enable-background:new 0 0 1024 1024;" xml:space="preserve">
<style type="text/css">
	.st0{stroke:#000000;stroke-miterlimit:10;}
	.st1{fill:#FFFFFF;stroke:#000000;stroke-miterlimit:10;}
</style>
<path class="st0" d="M152.2,678.2c0,75.9,56.4,137.3,126.2,137.3c68.8,0,124.5-56.6,124.5-126.6c0-68.9-55.7-124.7-124.5-124.7
	C208.6,564.2,152.2,615.2,152.2,678.2z"/>
<path class="st1" d="M162.1,692.8c0,57.4,49.3,103.8,110.3,103.8c57.7,0,104.4-47.7,104.4-106.5c0-61.8-45.3-111.8-101.2-111.8
	C212.8,578.3,162.1,629.5,162.1,692.8z"/>
<path class="st0" d="M677.2,603c-53.7,53.7-57.2,137-7.9,186.3c48.7,48.7,128.1,48,177.6-1.5c48.7-48.7,48.8-127.5,0.1-176.2
	C797.7,562.3,721.7,558.5,677.2,603z"/>
<path class="st1" d="M683.9,633.8c-40.6,40.6-38.5,108.3,4.6,151.4c40.8,40.8,107.5,40.1,149.2-1.5c43.7-43.7,47.1-111.1,7.5-150.7
	C800.8,588.6,728.6,589,683.9,633.8z"/>
<path class="st0" d="M524.8,132.1c-154.9-5.5-291,119.7-301.6,256.2c-6.4,82.8,34.9,148.2,55.1,175.9c26.3,9.4,52.6,18.7,78.8,28.1
	c-13.8-10.9-109.3-88.8-107.4-207.1C251.8,251.7,376.9,127.1,524.8,132.1c135.9,4.5,247.4,117.5,256.2,245.3
	c8.6,124.8-84.3,209.3-96.9,220.3c23.3-7.5,46.7-15.1,70-22.6c18.8-27.4,58.6-93.9,51.9-179C795.4,262.4,674,137.4,524.8,132.1z"/>
</svg>
