<?xml version="1.0" encoding="utf-8"?>
<!-- Generator: Adobe Illustrator 22.0.1, SVG Export Plug-In . SVG Version: 6.00 Build 0)  -->
<svg version="1.1" id="Layer_1" xmlns="http://www.w3.org/2000/svg" xmlns:xlink="http://www.w3.org/1999/xlink" x="0px" y="0px"
	 viewBox="0 0 1024 1024" style="enable-background:new 0 0 1024 1024;" xml:space="preserve">
<style type="text/css">
	.st0{stroke:#000000;stroke-miterlimit:10;}
	.st1{fill:#FFFFFF;stroke:#000000;stroke-miterlimit:10;}
</style>
<path class="st0" d="M294.4,277.7c0,131.7,98,238.3,219.1,238.3c119.5,0,216.2-98.3,216.2-219.8c0-119.6-96.7-216.4-216.2-216.4
	C392.3,79.9,294.4,168.4,294.4,277.7z"/>
<path class="st1" d="M311,288.3c0,99.6,85.6,180.2,191.4,180.2c100.2,0,181.3-82.7,181.3-185c0-107.3-78.6-194.2-175.8-194.2
	C399,89.4,311,178.4,311,288.3z"/>
<polygon class="st0" points="507.2,959.1 524.9,544.9 491.7,544.9 "/>
<polyline class="st0" points="403.5,660.2 617.4,660.2 508.3,675.7 "/>
<path class="st0" d="M251.8,285c0,142.7,114.7,258.1,256.6,258.1c138.8,0,251-106.9,251-239.1c0,147.2-112.3,266.3-251,266.3
	C366.5,570.3,251.8,442.7,251.8,285z"/>
</svg>
