<?xml version="1.0" encoding="utf-8"?>
<!-- Generator: Adobe Illustrator 22.0.1, SVG Export Plug-In . SVG Version: 6.00 Build 0)  -->
<svg version="1.1" id="Layer_1" xmlns="http://www.w3.org/2000/svg" xmlns:xlink="http://www.w3.org/1999/xlink" x="0px" y="0px"
	 viewBox="0 0 1024 1024" style="enable-background:new 0 0 1024 1024;" xml:space="preserve">
<style type="text/css">
	.st0{stroke:#000000;stroke-miterlimit:10;}
</style>
<polygon points="367.6,53.9 405.1,53.9 386.3,800.8 "/>
<path class="st0" d="M198.2,189.8h371.9c0,6.5-85.4,11.7-191,11.7C279.1,201.5,198.2,196.3,198.2,189.8z"/>
<path class="st0" d="M624.4,896.1c-40.2-5.4-91.3-28.9-93.5-58.6c-2.6-35.4,66.5-51.1,152.9-114.8
	c64.8-47.8,163.8-120.8,164.1-207.8c0.3-95.7-119.1-204-248.4-201.6C465,315.8,390.5,434.5,385.4,443v-13.4v124.4
	c1.3-107.4,68-198.7,158.6-225c136.3-39.6,276.1,82.6,280.4,183.1c4.3,99-121.6,192.8-209.4,229.4c-59.3,24.8-104.2,24.7-112.5,54.7
	c-10.8,38.9,47.3,101.6,112.5,115.6c94.5,20.4,169.7-68.8,168.8-70.3C783,840,711.4,907.9,624.4,896.1z"/>
</svg>
