<?xml version="1.0" encoding="utf-8"?>
<!-- Generator: Adobe Illustrator 22.0.1, SVG Export Plug-In . SVG Version: 6.00 Build 0)  -->
<svg version="1.1" id="Layer_1" xmlns="http://www.w3.org/2000/svg" xmlns:xlink="http://www.w3.org/1999/xlink" x="0px" y="0px"
	 viewBox="0 0 1024 1024" style="enable-background:new 0 0 1024 1024;" xml:space="preserve">
<style type="text/css">
	.st0{stroke:#000000;stroke-miterlimit:10;}
	.st1{fill:#FFFFFF;stroke:#000000;stroke-miterlimit:10;}
</style>
<path class="st0" d="M140.1,480.5c0,223.7,166.4,404.7,371.9,404.7c202.9,0,367.1-166.9,367.1-373.2
	c0-203.1-164.2-367.4-367.1-367.4C306.4,144.6,140.1,294.8,140.1,480.5z"/>
<path class="st1" d="M186.9,512c0,169.1,145.4,306,325.1,306c170.1,0,307.8-140.5,307.8-314.1c0-182.2-133.5-329.7-298.4-329.7
	C336.5,174.2,186.9,325.3,186.9,512z"/>
<path class="st0" d="M426,512c0,43,38.5,77.9,86,77.9c45.7,0,82.8-41.9,82.8-93.8c0-41.5-32.1-75-71.9-75
	C469.3,421.1,426,461.8,426,512z"/>
</svg>
