<?xml version="1.0" encoding="utf-8"?>
<!-- Generator: Adobe Illustrator 22.0.1, SVG Export Plug-In . SVG Version: 6.00 Build 0)  -->
<svg version="1.1" id="Layer_1" xmlns="http://www.w3.org/2000/svg" xmlns:xlink="http://www.w3.org/1999/xlink" x="0px" y="0px"
	 viewBox="0 0 1024 1024" style="enable-background:new 0 0 1024 1024;" xml:space="preserve">
<style type="text/css">
	.st0{stroke:#000000;stroke-miterlimit:10;}
	.st1{fill:#FFFFFF;stroke:#000000;stroke-miterlimit:10;}
</style>
<polygon class="st0" points="520.3,652 506.2,44.6 538,44.6 "/>
<path class="st0" d="M522.1,396.5c104.4,0,188.9-21.5,188.9-48.2H333.6C333.6,374.9,417.9,396.5,522.1,396.5z"/>
<path class="st0" d="M231.4,56.4c101.1,0,182.8,130.6,182.8,291.9h-27.5C386.7,187,317.2,56.4,231.4,56.4"/>
<path class="st0" d="M810.4,673.5c-101.1,0-182.8-130.6-182.8-291.9h27.5C655.1,543,724.5,673.5,810.4,673.5"/>
<path class="st0" d="M231.4,673.5c101.1,0,182.8-130.6,182.8-291.9h-27.5C386.7,543,317.2,673.5,231.4,673.5"/>
<path class="st0" d="M810.4,56.4c-101.1,0-182.8,130.6-182.8,291.9h27.5C655.1,187,724.5,56.4,810.4,56.4"/>
<path class="st0" d="M333.6,846.7c0,89.1,77.2,161.2,172.6,161.2c104.5,0,189.1-66.8,189.1-149.4c0-107.6-70.3-194.6-157.3-194.6
	C425,663.8,333.6,745.6,333.6,846.7z"/>
<path class="st1" d="M670.5,786.8c0-55.5-72.3-100.4-161.7-100.4c-74.7,0-135.2,59-135.2,131.8c0,90.2,60.5,163.2,135.2,163.2
	c89.4,0,161.7-73,161.7-163.2V786.8z"/>
</svg>
