<?xml version="1.0" encoding="utf-8"?>
<!-- Generator: Adobe Illustrator 22.0.1, SVG Export Plug-In . SVG Version: 6.00 Build 0)  -->
<svg version="1.1" id="Layer_1" xmlns="http://www.w3.org/2000/svg" xmlns:xlink="http://www.w3.org/1999/xlink" x="0px" y="0px"
	 viewBox="0 0 1024 1024" style="enable-background:new 0 0 1024 1024;" xml:space="preserve">
<style type="text/css">
	.st0{stroke:#000000;stroke-miterlimit:10;}
	.st1{fill:#FFFFFF;stroke:#000000;stroke-miterlimit:10;}
</style>
<path class="st0" d="M296.7,263.8c0,128.9,96.9,233.1,216.6,233.1c118.3,0,214-104.3,214-233.1c0-101.2-95.7-183.2-214-183.2
	C393.6,80.7,296.7,162.6,296.7,263.8z"/>
<polygon class="st0" points="491.4,495.8 513.3,972.7 534.9,495.8 "/>
<path class="st0" d="M365.7,639.7h297.4c0,14.5-66.5,26.2-148.7,26.2S365.7,654.1,365.7,639.7z"/>
<path class="st1" d="M330,277.4c0,94.7,82,171.3,183.3,171.3c95.9,0,173.6-76.6,173.6-171.3c0-98.6-77.6-178.4-173.6-178.4
	C412,99,330,178.8,330,277.4z"/>
</svg>
